<svg width="40" height="40" viewBox="0 0 40 40" fill="none" xmlns="http://www.w3.org/2000/svg">
<g clip-path="url(#clip0_70_723)">
<path d="M36.233 38.75V27.5C36.233 27.2678 36.1684 27.0403 36.0463 26.8428C35.9243 26.6454 35.7497 26.4858 35.542 26.382C35.3344 26.2781 35.1019 26.2342 34.8707 26.255C34.6395 26.2759 34.4187 26.3607 34.233 26.5L32.483 27.5M33.733 38.75H38.733M27.483 38.75V27.5C27.483 27.2678 27.4184 27.0403 27.2963 26.8428C27.1743 26.6454 26.9997 26.4858 26.792 26.382C26.5844 26.2781 26.3519 26.2342 26.1207 26.255C25.8895 26.2759 25.6687 26.3607 25.483 26.5L23.8163 27.5M24.983 38.75H29.983M16.4663 5.58332L12.9163 7.48332C9.69675 9.20043 6.67342 11.2626 3.89967 13.6333C2.61725 14.7525 1.75365 16.2746 1.45076 17.9495C1.14788 19.6244 1.42374 21.3526 2.233 22.85L2.933 24.1667C3.2442 24.7395 3.76685 25.1681 4.38954 25.3612C5.01222 25.5542 5.68568 25.4964 6.26634 25.2L11.783 22.25C12.3559 21.9388 12.7845 21.4161 12.9775 20.7935C13.1705 20.1708 13.1127 19.4973 12.8163 18.9167C12.5186 18.338 12.4583 17.6661 12.6481 17.0436C12.838 16.4212 13.263 15.8973 13.833 15.5833L22.6663 10.8833C23.2462 10.5825 23.9212 10.5223 24.5451 10.7158C25.169 10.9092 25.6916 11.3406 25.9997 11.9167C26.3137 12.4866 26.8376 12.9117 27.46 13.1015C28.0824 13.2913 28.7544 13.231 29.333 12.9333L34.8997 9.99999C35.4757 9.69195 35.9071 9.16935 36.1006 8.54543C36.294 7.92151 36.2338 7.2465 35.933 6.66665L35.233 5.34999C34.4562 3.83069 33.1823 2.62331 31.6236 1.92888C30.065 1.23444 28.3154 1.09484 26.6663 1.53332C23.1254 2.49711 19.704 3.85562 16.4663 5.58332ZM12.483 30C12.483 30.9945 12.8781 31.9484 13.5814 32.6516C14.2846 33.3549 15.2384 33.75 16.233 33.75C17.2276 33.75 18.1814 33.3549 18.8847 32.6516C19.5879 31.9484 19.983 30.9945 19.983 30C19.983 29.0054 19.5879 28.0516 18.8847 27.3483C18.1814 26.6451 17.2276 26.25 16.233 26.25C15.2384 26.25 14.2846 26.6451 13.5814 27.3483C12.8781 28.0516 12.483 29.0054 12.483 30Z" stroke="white" stroke-width="3" stroke-linecap="round" stroke-linejoin="round"/>
<path d="M15 38.75C16.3261 38.75 17.5979 38.2232 18.5355 37.2855C19.4732 36.3479 20 35.0761 20 33.75V30" stroke="white" stroke-width="3" stroke-linecap="round" stroke-linejoin="round"/>
</g>
<defs>
<clipPath id="clip0_70_723">
<rect width="40" height="40" fill="white"/>
</clipPath>
</defs>
</svg>
