<svg width="84" height="84" viewBox="0 0 84 84" fill="none" xmlns="http://www.w3.org/2000/svg">
<path d="M39.6445 5.642C40.2318 5.10752 40.9834 4.78865 41.7759 4.73777C42.5684 4.68689 43.3546 4.90702 44.0055 5.362L44.3555 5.642L80.5 38.5H70V70C69.9999 70.8573 69.6852 71.6847 69.1155 72.3253C68.5458 72.9659 67.7609 73.3752 66.9095 73.4755L66.5 73.5H43.75L52.5 59.5L40.25 49L54.25 38.5L45.5 31.5L47.25 21L36.75 31.5L45.5 38.5L28 49L41.125 61.25L29.75 73.5H17.5C16.6427 73.4999 15.8153 73.1852 15.1747 72.6155C14.5341 72.0458 14.1248 71.2609 14.0245 70.4095L14 70V38.5H3.5L39.6445 5.642Z" fill="#8C4848"/>
</svg>
