<svg width="27" height="27" viewBox="0 0 27 27" fill="none" xmlns="http://www.w3.org/2000/svg">
<path d="M6.26367 5.88945V2.84999C6.26385 2.35928 6.4589 1.88873 6.80595 1.54181C7.15299 1.19489 7.62361 1 8.11432 1H24.1498C24.6406 1 25.1113 1.19498 25.4584 1.54204C25.8055 1.88911 26.0004 2.35983 26.0004 2.85065V18.8868C26.0003 19.3774 25.8053 19.8478 25.4584 20.1947C25.1115 20.5416 24.641 20.7366 24.1504 20.7368H21.0768" fill="white"/>
<path d="M6.26367 5.88945V2.84999C6.26385 2.35928 6.4589 1.88873 6.80595 1.54181C7.15299 1.19489 7.62361 1 8.11432 1H24.1498C24.6406 1 25.1113 1.19498 25.4584 1.54204C25.8055 1.88911 26.0004 2.35983 26.0004 2.85065V18.8868C26.0003 19.3774 25.8053 19.8478 25.4584 20.1947C25.1115 20.5416 24.641 20.7366 24.1504 20.7368H21.0768" stroke="black" stroke-width="2" stroke-linecap="round" stroke-linejoin="round"/>
<path d="M18.8868 6.26318H2.84933C2.35874 6.26353 1.88836 6.45867 1.54158 6.80569C1.1948 7.15272 1 7.62324 1 8.11383V24.1493C1 24.6401 1.19498 25.1108 1.54204 25.4579C1.88911 25.805 2.35983 25.9999 2.85065 25.9999H18.8868C19.3774 25.9998 19.8478 25.8048 20.1947 25.4579C20.5416 25.111 20.7366 24.6405 20.7368 24.1499V8.11252C20.7364 7.62204 20.5414 7.15175 20.1945 6.80499C19.8476 6.45823 19.3772 6.26336 18.8868 6.26318Z" fill="white" stroke="black" stroke-width="2" stroke-linejoin="round"/>
</svg>
