<svg width="39" height="39" viewBox="0 0 39 39" fill="none" xmlns="http://www.w3.org/2000/svg">
<path d="M36.4555 16.9845L28.7968 2.88844C28.7211 2.75181 28.6102 2.63794 28.4756 2.55866C28.341 2.47937 28.1877 2.43756 28.0315 2.43756C27.8753 2.43756 27.7219 2.47937 27.5873 2.55866C27.4527 2.63794 27.3418 2.75181 27.2661 2.88844L19.6087 16.9821C19.5355 17.1157 19.4983 17.266 19.5008 17.4183C19.5034 17.5706 19.5455 17.7196 19.6231 17.8507C19.7007 17.9818 19.8111 18.0904 19.9434 18.1659C20.0757 18.2414 20.2254 18.2812 20.3777 18.2812H35.6852C35.8374 18.281 35.9869 18.2413 36.119 18.1659C36.2512 18.0904 36.3614 17.9819 36.439 17.851C36.5165 17.7201 36.5587 17.5713 36.5614 17.4192C36.5641 17.267 36.5272 17.1168 36.4542 16.9833M27.1174 7.3125H28.9455V12.1875H27.1174V7.3125ZM28.0315 15.8437C27.7904 15.8437 27.5548 15.7723 27.3544 15.6384C27.1539 15.5044 26.9977 15.3141 26.9055 15.0914C26.8132 14.8687 26.7891 14.6236 26.8361 14.3872C26.8832 14.1508 26.9992 13.9337 27.1697 13.7632C27.3401 13.5928 27.5573 13.4767 27.7937 13.4297C28.0301 13.3826 28.2752 13.4068 28.4979 13.499C28.7206 13.5913 28.9109 13.7475 29.0448 13.9479C29.1787 14.1483 29.2502 14.384 29.2502 14.625C29.2502 14.9482 29.1218 15.2582 28.8933 15.4868C28.6647 15.7153 28.3547 15.8437 28.0315 15.8437ZM31.6877 23.1563V20.7188H20.719V34.125C20.7199 34.7712 20.977 35.3906 21.434 35.8475C21.8909 36.3044 22.5103 36.5615 23.1565 36.5625H26.8127V34.125H23.1565V23.1563H31.6877ZM14.6252 36.5625H10.969V34.125H14.6252V18.9711L10.3413 16.4007L11.5966 14.3118L15.8793 16.8809C16.2394 17.0984 16.5375 17.4049 16.7448 17.771C16.952 18.1371 17.0615 18.5504 17.0627 18.9711V34.125C17.0627 34.7715 16.8059 35.3915 16.3488 35.8486C15.8917 36.3057 15.2717 36.5625 14.6252 36.5625Z" fill="#038B53"/>
<path d="M22.7467 6.10107L23.9168 3.94754C22.2107 2.94069 20.2622 2.41858 18.2812 2.43751C16.5719 2.44285 14.8937 2.89583 13.4138 3.75135C11.9339 4.60686 10.7039 5.83508 9.84628 7.31373L9.75 7.31251C7.8106 7.31251 5.95064 8.08293 4.57928 9.45429C3.20792 10.8257 2.4375 12.6856 2.4375 14.625C2.4375 16.5644 3.20792 18.4244 4.57928 19.7957C5.95064 21.1671 7.8106 21.9375 9.75 21.9375V19.5C8.45707 19.5 7.21709 18.9864 6.30285 18.0722C5.38861 17.1579 4.875 15.9179 4.875 14.625C4.875 13.3321 5.38861 12.0921 6.30285 11.1779C7.21709 10.2636 8.45707 9.75001 9.75 9.75001C9.90811 9.75604 10.0657 9.77232 10.2217 9.79876L11.2734 9.93648L11.65 9.12357C12.2372 7.8583 13.1728 6.78662 14.3473 6.03414C15.5218 5.28167 16.8864 4.87958 18.2812 4.87501C19.8552 4.85773 21.4023 5.28253 22.7467 6.10107Z" fill="#038B53"/>
</svg>
