<svg width="20" height="20" viewBox="0 0 20 20" fill="none" xmlns="http://www.w3.org/2000/svg">
<path d="M14.6823 2.85946C15.2264 3.2861 15.6014 3.97521 15.7547 4.69683L15.8089 4.71849L17.5129 5.50676C17.6081 5.55058 17.6888 5.62069 17.7455 5.70882C17.8022 5.79695 17.8325 5.89944 17.8329 6.00423V16.3093C17.8323 16.3949 17.8118 16.4792 17.7732 16.5556C17.7345 16.6319 17.6787 16.6983 17.6101 16.7495C17.5415 16.8007 17.4619 16.8353 17.3777 16.8506C17.2935 16.8658 17.2068 16.8614 17.1246 16.8376L12.4008 15.5043L6.78456 17.0526C6.68325 17.0806 6.57609 17.0794 6.47541 17.0492L1.56245 15.5868C1.44889 15.5535 1.34912 15.4844 1.27797 15.3898C1.20681 15.2952 1.16806 15.1802 1.16748 15.0619V4.57183C1.16748 4.2052 1.52412 3.94188 1.87993 4.04521L6.63124 5.42927L9.04605 4.69016C9.07939 4.68016 9.11327 4.67322 9.14771 4.66933C9.24104 4.1227 9.50185 3.59774 9.93932 3.08611C10.4584 2.47783 11.3692 2.12119 12.2566 2.07869C13.1774 2.03453 13.8807 2.23118 14.6815 2.85863M2.27823 5.30761V14.6527L6.33626 15.8602V6.48836L2.27823 5.30761ZM9.11855 5.81924L7.44701 6.33004V15.7285L11.6675 14.5669V11.8213C11.6675 11.518 11.9167 11.2722 12.2233 11.2722C12.53 11.2722 12.7783 11.518 12.7783 11.8221V14.4694L16.7221 15.5818V6.35337L15.7889 5.92007C15.7733 6.01173 15.7531 6.10144 15.7281 6.18921C15.5475 6.8284 15.2435 7.426 14.8331 7.94825L12.7691 10.5256C12.7148 10.5933 12.6454 10.6475 12.5664 10.6837C12.4875 10.7199 12.4011 10.7372 12.3143 10.7342C12.2275 10.7312 12.1426 10.708 12.0663 10.6665C11.9901 10.6249 11.9246 10.5661 11.875 10.4947L9.94599 7.70077C9.62712 7.25691 9.40464 6.85805 9.27854 6.50419C9.19925 6.28272 9.14557 6.05291 9.11855 5.81924ZM12.31 3.17694C11.705 3.2061 11.0834 3.44942 10.7876 3.79523C10.4318 4.21186 10.2568 4.60183 10.2218 4.9968C10.1801 5.4726 10.2085 5.80841 10.3268 6.14088C10.4143 6.3867 10.5884 6.69834 10.8576 7.07415L12.3666 9.25898L13.9582 7.27163C14.2795 6.86143 14.5175 6.3924 14.659 5.8909C14.859 5.19095 14.5573 4.1627 13.9923 3.72107C13.4132 3.26693 12.9758 3.14444 12.3108 3.17694M12.4258 3.75773C13.3457 3.75773 14.0923 4.49517 14.0923 5.40511C14.0895 5.84446 13.9124 6.26471 13.5999 6.57359C13.2874 6.88246 12.8652 7.0547 12.4258 7.05248C11.5059 7.05248 10.7593 6.31504 10.7593 5.40511C10.7593 4.49517 11.5059 3.75773 12.4258 3.75773ZM12.4258 4.85598C12.3533 4.85554 12.2813 4.8694 12.2141 4.89676C12.1469 4.92411 12.0858 4.96444 12.0342 5.01543C11.9826 5.06642 11.9415 5.12708 11.9133 5.19394C11.8852 5.2608 11.8704 5.33256 11.87 5.40511C11.87 5.70842 12.1192 5.95423 12.4258 5.95423C12.4984 5.95456 12.5703 5.9406 12.6374 5.91314C12.7046 5.88568 12.7656 5.84526 12.8172 5.79419C12.8687 5.74312 12.9097 5.6824 12.9378 5.6155C12.9658 5.5486 12.9804 5.47682 12.9808 5.40427C12.9797 5.25804 12.9206 5.11821 12.8166 5.01543C12.7126 4.91265 12.572 4.85531 12.4258 4.85598Z" fill="black"/>
</svg>
