<svg width="250" height="42" viewBox="0 0 250 42" fill="none" xmlns="http://www.w3.org/2000/svg">
<path d="M80.4559 35.816C80.3705 36.4773 80.0932 36.936 79.6239 37.192C79.1759 37.448 78.5679 37.576 77.7999 37.576C77.5012 37.576 77.1599 37.512 76.7759 37.384C76.4132 37.2773 76.1039 37.0853 75.8479 36.808C75.6132 36.5093 75.5172 36.0933 75.5599 35.56C75.7945 33.512 75.9865 31.304 76.1359 28.936C76.2852 26.5467 76.4025 24.1253 76.4879 21.672C76.5945 19.1973 76.6692 16.8187 76.7119 14.536C76.7332 13.832 76.9785 13.32 77.4479 13C77.9385 12.68 78.5252 12.52 79.2079 12.52C79.9332 12.52 80.4879 12.648 80.8719 12.904C81.2772 13.16 81.6825 13.7467 82.0879 14.664C82.6212 15.88 83.1972 17.1173 83.8159 18.376C84.4559 19.6133 85.0959 20.8507 85.7359 22.088C86.3972 23.3253 87.0265 24.5627 87.6239 25.8C88.0505 25.1387 88.5092 24.4133 88.9999 23.624C89.4905 22.8347 89.9919 22.024 90.5039 21.192C91.0372 20.3387 91.5599 19.5067 92.0719 18.696C92.5839 17.864 93.0639 17.096 93.5119 16.392C93.9599 15.688 94.3545 15.0693 94.6959 14.536C95.0372 13.9813 95.2932 13.5653 95.4639 13.288C95.7839 12.7973 96.1465 12.488 96.5519 12.36C96.9785 12.2107 97.4052 12.136 97.8319 12.136C98.7279 12.136 99.3999 12.3067 99.8479 12.648C100.317 12.9893 100.531 13.416 100.488 13.928L100.232 18.824C100.168 19.8907 100.115 21.064 100.072 22.344C100.051 23.6027 100.029 24.8933 100.008 26.216C99.9865 27.5387 99.9759 28.808 99.9759 30.024C99.9759 31.2187 99.9865 32.3067 100.008 33.288C100.029 34.248 100.051 35.0053 100.072 35.56C100.093 36.0933 99.9759 36.5093 99.7199 36.808C99.4639 37.0853 99.1545 37.2773 98.7919 37.384C98.4505 37.512 98.1305 37.576 97.8319 37.576C97.0852 37.576 96.4665 37.448 95.9759 37.192C95.4852 36.936 95.2185 36.4773 95.1759 35.816C95.1545 35.0907 95.1332 34.2267 95.1119 33.224C95.1119 32.2213 95.1119 31.1333 95.1119 29.96C95.1119 28.7653 95.1225 27.528 95.1439 26.248C95.1865 24.9467 95.2292 23.6453 95.2719 22.344C94.6319 23.3893 93.9919 24.4133 93.3519 25.416C92.7332 26.3973 92.1252 27.3573 91.5279 28.296C90.9305 29.2347 90.3545 30.152 89.7999 31.048C89.9279 31.7307 89.8852 32.2747 89.6719 32.68C89.4799 33.064 89.1919 33.3413 88.8079 33.512C88.4239 33.6827 88.0079 33.768 87.5599 33.768C86.8345 33.768 86.3012 33.6187 85.9599 33.32C85.6399 33.0213 85.3519 32.5307 85.0959 31.848C84.8612 31.1867 84.5945 30.5147 84.2959 29.832C83.9972 29.128 83.6772 28.424 83.3359 27.72C82.9945 27.016 82.6425 26.3227 82.2799 25.64C81.9385 24.936 81.5865 24.2427 81.2239 23.56C81.1812 24.6907 81.1279 25.8107 81.0639 26.92C81.0212 28.008 80.9679 29.0747 80.9039 30.12C80.8399 31.144 80.7652 32.136 80.6799 33.096C80.6159 34.056 80.5412 34.9627 80.4559 35.816ZM145.59 21.224C145.76 21.3947 145.899 21.5973 146.006 21.832C146.134 22.0667 146.198 22.3227 146.198 22.6C146.198 22.8773 146.091 23.1973 145.878 23.56C145.686 23.9013 145.43 24.2 145.11 24.456C144.811 24.712 144.48 24.84 144.118 24.84C143.798 24.84 143.542 24.7867 143.35 24.68C143.158 24.5733 142.976 24.4453 142.806 24.296C142.507 23.9973 142.123 23.7093 141.654 23.432C141.184 23.1547 140.672 23.016 140.118 23.016C139.755 23.016 139.424 23.112 139.126 23.304C138.827 23.4747 138.678 23.7307 138.678 24.072C138.678 24.4987 138.891 24.8507 139.318 25.128C139.766 25.4053 140.491 25.8107 141.494 26.344C142.326 26.792 143.062 27.24 143.702 27.688C144.363 28.136 144.875 28.68 145.238 29.32C145.622 29.9387 145.814 30.7493 145.814 31.752C145.814 32.7333 145.547 33.64 145.014 34.472C144.502 35.304 143.766 35.976 142.806 36.488C141.846 37 140.715 37.256 139.414 37.256C138.24 37.256 137.078 37.096 135.926 36.776C134.774 36.456 133.792 35.944 132.982 35.24C132.811 35.0907 132.651 34.92 132.502 34.728C132.374 34.5147 132.31 34.2373 132.31 33.896C132.31 33.3413 132.502 32.8293 132.886 32.36C133.27 31.8693 133.686 31.624 134.134 31.624C134.304 31.624 134.454 31.6453 134.582 31.688C134.71 31.7307 134.848 31.8053 134.998 31.912C135.68 32.36 136.331 32.7227 136.95 33C137.568 33.2773 138.24 33.416 138.966 33.416C139.478 33.416 139.862 33.3307 140.118 33.16C140.395 32.9893 140.534 32.7653 140.534 32.488C140.534 32.0187 140.31 31.6347 139.862 31.336C139.414 31.0373 138.816 30.7067 138.07 30.344C136.854 29.768 135.904 29.2027 135.222 28.648C134.539 28.072 134.048 27.4747 133.75 26.856C133.472 26.216 133.334 25.512 133.334 24.744C133.334 23.72 133.622 22.8027 134.198 21.992C134.795 21.16 135.595 20.5093 136.598 20.04C137.622 19.5707 138.774 19.336 140.054 19.336C141.056 19.336 142.08 19.496 143.126 19.816C144.171 20.1147 144.992 20.584 145.59 21.224ZM149.703 20.776C149.767 20.2427 150.023 19.8587 150.471 19.624C150.919 19.3893 151.399 19.272 151.911 19.272C152.359 19.272 152.786 19.3253 153.191 19.432C153.596 19.5387 153.927 19.72 154.183 19.976C154.46 20.232 154.578 20.584 154.535 21.032C154.471 21.9493 154.407 22.92 154.343 23.944C154.3 24.968 154.258 26.0773 154.215 27.272C154.194 28.4453 154.172 29.736 154.151 31.144C154.151 32.552 154.162 34.0987 154.183 35.784C154.183 36.424 153.97 36.904 153.543 37.224C153.138 37.544 152.551 37.704 151.783 37.704C150.908 37.704 150.311 37.5867 149.991 37.352C149.692 37.1173 149.49 36.6907 149.383 36.072C149.298 35.624 149.234 35.112 149.191 34.536C149.17 33.96 149.159 33.2987 149.159 32.552C149.159 31.4 149.18 30.2587 149.223 29.128C149.266 27.976 149.308 26.8773 149.351 25.832C149.415 24.7653 149.479 23.8053 149.543 22.952C149.607 22.0773 149.66 21.352 149.703 20.776ZM149.351 13.992C149.351 13.096 149.639 12.4133 150.215 11.944C150.812 11.4747 151.474 11.24 152.199 11.24C153.33 11.24 154.13 11.5387 154.599 12.136C155.068 12.712 155.303 13.3627 155.303 14.088C155.303 14.4293 155.207 14.8133 155.015 15.24C154.844 15.6667 154.524 16.0293 154.055 16.328C153.607 16.6267 152.967 16.776 152.135 16.776C151.175 16.776 150.471 16.488 150.023 15.912C149.575 15.3147 149.351 14.6747 149.351 13.992ZM169.892 12.2C169.935 11.496 170.17 11.0053 170.596 10.728C171.044 10.4507 171.62 10.312 172.324 10.312C173.284 10.312 174.01 10.4613 174.5 10.76C174.991 11.0373 175.215 11.5707 175.172 12.36C174.916 16.072 174.703 19.9227 174.532 23.912C174.362 27.88 174.191 31.7733 174.02 35.592C173.999 36.2533 173.7 36.7227 173.124 37C172.57 37.2773 171.94 37.416 171.236 37.416C170.49 37.416 169.914 37.2667 169.508 36.968C169.124 36.6693 168.932 36.3173 168.932 35.912C168.932 35.6987 168.943 35.496 168.964 35.304C168.986 35.112 169.007 34.8987 169.028 34.664C169.071 34.4293 169.092 34.1733 169.092 33.896C168.687 34.7067 168.207 35.368 167.652 35.88C167.098 36.3707 166.479 36.744 165.796 37C165.135 37.2347 164.442 37.352 163.716 37.352C162.607 37.352 161.658 37.1173 160.868 36.648C160.079 36.1573 159.439 35.5173 158.948 34.728C158.479 33.9387 158.127 33.0853 157.892 32.168C157.679 31.2507 157.572 30.3653 157.572 29.512C157.572 28.2533 157.764 27.016 158.148 25.8C158.554 24.584 159.108 23.496 159.812 22.536C160.538 21.5547 161.402 20.776 162.404 20.2C163.407 19.6027 164.527 19.304 165.764 19.304C166.362 19.304 166.959 19.3893 167.556 19.56C168.154 19.7093 168.751 19.9547 169.348 20.296C169.412 19.3147 169.466 18.3547 169.508 17.416C169.572 16.4773 169.636 15.5707 169.7 14.696C169.764 13.8 169.828 12.968 169.892 12.2ZM163.012 29.32C163.012 29.9387 163.076 30.536 163.204 31.112C163.354 31.6667 163.578 32.1253 163.876 32.488C164.175 32.8293 164.559 33 165.028 33C165.498 33 165.935 32.8293 166.34 32.488C166.767 32.1253 167.13 31.6773 167.428 31.144C167.748 30.5893 168.004 30.0027 168.196 29.384C168.41 28.7653 168.538 28.1893 168.58 27.656C168.602 27.5493 168.634 27.4533 168.676 27.368C168.719 27.2613 168.794 27.1653 168.9 27.08L169.06 24.264C168.634 23.9227 168.239 23.6987 167.876 23.592C167.535 23.464 167.151 23.4 166.724 23.4C166.127 23.4 165.54 23.624 164.964 24.072C164.41 24.4987 163.94 25.1493 163.556 26.024C163.194 26.8987 163.012 27.9973 163.012 29.32Z" fill="#279EFF"/>
<path d="M119.126 13.1793C118.972 12.8806 118.739 12.6301 118.452 12.4551C118.165 12.2802 117.836 12.1877 117.5 12.1877C117.164 12.1877 116.835 12.2802 116.548 12.4551C116.261 12.6301 116.028 12.8806 115.874 13.1793L104.906 34.5074C104.684 34.9385 104.642 35.4402 104.789 35.9022C104.937 36.3642 105.262 36.7486 105.693 36.9708C106.124 37.193 106.626 37.2349 107.088 37.0872C107.55 36.9395 107.935 36.6143 108.157 36.1832L109.833 32.9093H125.16L126.843 36.1832C126.953 36.3966 127.104 36.5863 127.288 36.7414C127.471 36.8966 127.683 37.014 127.912 37.0872C128.141 37.1603 128.381 37.1877 128.621 37.1677C128.86 37.1477 129.093 37.0808 129.307 36.9708C129.52 36.8608 129.71 36.7098 129.865 36.5264C130.02 36.3431 130.137 36.131 130.211 35.9022C130.284 35.6735 130.311 35.4325 130.291 35.1932C130.271 34.9539 130.204 34.7209 130.094 34.5074L119.126 13.1793ZM111.722 29.25L112.974 26.8125L117.5 18.0131L120.145 23.1563L123.278 29.25H111.722ZM124.586 10.4706C124.7 10.6858 124.77 10.9218 124.792 11.1646C124.814 11.4074 124.787 11.6521 124.713 11.8844C124.639 12.1166 124.519 12.3317 124.361 12.517C124.202 12.7023 124.008 12.854 123.79 12.9632C123.573 13.0724 123.335 13.137 123.092 13.153C122.848 13.1691 122.604 13.1363 122.374 13.0566C122.144 12.977 121.931 12.852 121.75 12.6892C121.569 12.5263 121.422 12.3288 121.318 12.1083C120.961 11.3919 120.409 10.7904 119.726 10.3727C119.043 9.95492 118.257 9.73777 117.456 9.74603C116.656 9.7543 115.874 9.98764 115.2 10.4194C114.525 10.8511 113.986 11.4639 113.644 12.1875C113.436 12.6257 113.062 12.9633 112.605 13.126C112.149 13.2887 111.646 13.2632 111.207 13.0551C110.769 12.847 110.432 12.4734 110.269 12.0164C110.106 11.5594 110.132 11.0565 110.34 10.6184C110.987 9.26707 112.002 8.1257 113.269 7.32535C114.535 6.525 116.002 6.09812 117.5 6.09376C118.972 6.08898 120.416 6.49643 121.668 7.26997C122.92 8.04352 123.931 9.15224 124.586 10.4706ZM105.607 22.0487C104.284 19.9268 103.552 17.4896 103.489 14.9899C103.425 12.4901 104.032 10.0189 105.245 7.83252C106.459 5.64612 108.235 3.82416 110.39 2.55559C112.544 1.28702 114.999 0.618042 117.5 0.618042C120.001 0.618042 122.456 1.28702 124.61 2.55559C126.765 3.82416 128.541 5.64612 129.755 7.83252C130.968 10.0189 131.575 12.4901 131.511 14.9899C131.448 17.4896 130.716 19.9268 129.393 22.0487C129.136 22.46 128.726 22.7523 128.254 22.8613C127.781 22.9703 127.284 22.8871 126.873 22.6299C126.462 22.3727 126.169 21.9627 126.06 21.49C125.951 21.0173 126.035 20.5207 126.292 20.1094C127.269 18.541 127.809 16.7396 127.856 14.8921C127.903 13.0447 127.454 11.2183 126.558 9.60248C125.661 7.98665 124.348 6.64018 122.755 5.70268C121.163 4.76518 119.348 4.2708 117.5 4.2708C115.652 4.2708 113.838 4.76518 112.245 5.70268C110.652 6.64018 109.339 7.98665 108.442 9.60248C107.546 11.2183 107.097 13.0447 107.144 14.8921C107.191 16.7396 107.731 18.541 108.708 20.1094C108.955 20.5204 109.03 21.0118 108.917 21.4777C108.805 21.9436 108.514 22.3468 108.108 22.6004C107.701 22.8541 107.211 22.9379 106.743 22.8338C106.276 22.7298 105.867 22.4462 105.607 22.0441V22.0487Z" fill="#03C988"/>
</svg>
