<svg width="39" height="39" viewBox="0 0 39 39" fill="none" xmlns="http://www.w3.org/2000/svg">
<path d="M3.25 35.75H35.75L26 22.75L17.875 19.5L13 13H3.25V35.75ZM6.5 32.5V29.9L9.75 30.9562L24.4156 26.0812L29.25 32.5H6.5ZM9.75 27.5438L6.5 26.4469V23.4L9.75 24.4563L16.1687 22.3438L20.0688 24.0906L9.75 27.5438ZM30.0625 22.75L37.375 19.5V13L30.0625 11.375L26 14.625V19.5L30.0625 22.75ZM9.75 21.0437L6.5 19.9469V16.25H11.375L14.0156 19.6219L9.75 21.0437ZM30.55 18.9719L29.25 17.9563V16.1687L30.875 14.8687L34.125 15.6V17.3875L30.55 18.9719ZM19.5 13L27.625 9.75V1.625L19.5 0L14.625 3.25V9.75L19.5 13ZM19.8656 9.34375L17.875 8.00313V4.99688L20.1906 3.45312L24.375 4.30625V7.55625L19.8656 9.34375Z" fill="#038B53"/>
</svg>
