<svg width="67" height="67" viewBox="0 0 67 67" fill="none" xmlns="http://www.w3.org/2000/svg">
<path d="M18.8439 33.5C18.8439 34.2056 18.8941 34.9133 18.9925 35.6063L14.8469 36.1988C14.7188 35.305 14.6551 34.403 14.6564 33.5C14.6564 23.1087 23.1109 14.6562 33.5001 14.6562C37.7777 14.6562 41.9673 16.1302 45.2984 18.804L42.6749 22.0702C40.0798 19.9698 36.8388 18.83 33.5001 18.8438C25.4183 18.8438 18.8439 25.4181 18.8439 33.5ZM16.7501 41.875C16.7501 42.4303 16.9707 42.9629 17.3634 43.3555C17.756 43.7482 18.2886 43.9688 18.8439 43.9688C19.3992 43.9688 19.9317 43.7482 20.3244 43.3555C20.717 42.9629 20.9376 42.4303 20.9376 41.875C20.9376 41.3197 20.717 40.7871 20.3244 40.3945C19.9317 40.0018 19.3992 39.7812 18.8439 39.7812C18.2886 39.7812 17.756 40.0018 17.3634 40.3945C16.9707 40.7871 16.7501 41.3197 16.7501 41.875ZM33.5001 8.375C47.3545 8.375 58.6251 19.6457 58.6251 33.5H62.8126C62.8126 17.3363 49.6639 4.1875 33.5001 4.1875C30.0601 4.1875 26.6892 4.77794 23.4815 5.94416L24.9137 9.88041C27.6662 8.88211 30.5721 8.37264 33.5001 8.375ZM46.0626 25.125C46.0626 25.6803 46.2832 26.2129 46.6759 26.6055C47.0685 26.9982 47.6011 27.2188 48.1564 27.2188C48.7117 27.2188 49.2442 26.9982 49.6369 26.6055C50.0295 26.2129 50.2501 25.6803 50.2501 25.125C50.2501 24.5697 50.0295 24.0371 49.6369 23.6445C49.2442 23.2518 48.7117 23.0312 48.1564 23.0312C47.6011 23.0312 47.0685 23.2518 46.6759 23.6445C46.2832 24.0371 46.0626 24.5697 46.0626 25.125ZM18.8439 12.5625C19.3992 12.5625 19.9317 12.3419 20.3244 11.9493C20.717 11.5566 20.9376 11.024 20.9376 10.4688C20.9376 9.91345 20.717 9.3809 20.3244 8.98825C19.9317 8.59559 19.3992 8.375 18.8439 8.375C18.2886 8.375 17.756 8.59559 17.3634 8.98825C16.9707 9.3809 16.7501 9.91345 16.7501 10.4688C16.7501 11.024 16.9707 11.5566 17.3634 11.9493C17.756 12.3419 18.2886 12.5625 18.8439 12.5625ZM8.37514 33.5C8.37514 26.7895 10.9881 20.479 15.7347 15.7345L12.772 12.7719C10.0408 15.4871 7.87573 18.7174 6.40216 22.2755C4.92859 25.8336 4.17587 29.6488 4.18764 33.5C4.18764 49.6637 17.3364 62.8125 33.5001 62.8125V58.625C19.6458 58.625 8.37514 47.3543 8.37514 33.5ZM59.672 53.3906C59.672 56.8537 56.8538 59.6719 53.3908 59.6719C49.9277 59.6719 47.1095 56.8537 47.1095 53.3906C47.1095 52.4233 47.3482 51.5188 47.7376 50.7002L36.1906 39.151C35.374 39.5426 34.4674 39.7812 33.5001 39.7812C30.0371 39.7812 27.2189 36.9631 27.2189 33.5C27.2189 30.0369 30.0371 27.2188 33.5001 27.2188C36.9632 27.2188 39.7814 30.0369 39.7814 33.5C39.7814 34.4673 39.5448 35.3718 39.1533 36.1905L50.7003 47.7396C51.5169 47.3481 52.4234 47.1094 53.3908 47.1094C56.8538 47.1094 59.672 49.9276 59.672 53.3906ZM33.5001 35.5938C34.6538 35.5938 35.5939 34.6537 35.5939 33.5C35.5939 32.3463 34.6538 31.4062 33.5001 31.4062C32.3465 31.4062 31.4064 32.3463 31.4064 33.5C31.4064 34.6537 32.3465 35.5938 33.5001 35.5938ZM55.4845 53.3906C55.4842 52.835 55.2633 52.3023 54.8702 51.9097C54.4772 51.517 53.9442 51.2966 53.3887 51.2969C52.8331 51.2972 52.3004 51.5181 51.9077 51.9112C51.5151 52.3042 51.2946 52.8371 51.2949 53.3927C51.2952 53.9483 51.5162 54.481 51.9092 54.8737C52.3023 55.2663 52.8352 55.4867 53.3908 55.4865C53.9463 55.4862 54.479 55.2652 54.8717 54.8722C55.2644 54.4791 55.4848 53.9462 55.4845 53.3906Z" fill="#03C988"/>
</svg>
