<svg width="24" height="24" viewBox="0 0 24 24" fill="none" xmlns="http://www.w3.org/2000/svg">
<g clip-path="url(#clip0_75_844)">
<path d="M20.4615 3.44754C20.206 2.24204 19.132 1.44104 17.8825 1.50354C16.3725 1.57904 14.008 1.75454 10.6775 2.15704C7.34749 2.55954 5.00999 2.95204 3.52599 3.23804C2.29799 3.47454 1.45349 4.50754 1.50199 5.73804C1.55499 7.08304 1.69649 9.11654 2.04649 11.9225C2.20499 13.1915 2.36599 14.2975 2.52049 15.25" stroke="black" stroke-width="1.5" stroke-linecap="round" stroke-linejoin="round"/>
<path d="M2.721 19.979C2.8305 21.252 3.824 22.2025 5.0985 22.2885C6.641 22.3925 9.0645 22.5 12.5 22.5C15.935 22.5 18.359 22.3925 19.9015 22.2885C21.1765 22.2025 22.1695 21.252 22.279 19.979C22.392 18.662 22.5 16.698 22.5 14C22.5 11.302 22.392 9.3385 22.279 8.021C22.1695 6.748 21.176 5.7975 19.9015 5.7115C18.359 5.6075 15.9355 5.5 12.5 5.5C9.065 5.5 6.641 5.6075 5.0985 5.7115C3.8235 5.7975 2.8305 6.748 2.721 8.021C2.608 9.338 2.5 11.302 2.5 14C2.5 16.698 2.608 18.662 2.721 19.979Z" stroke="black" stroke-width="1.5" stroke-linejoin="round"/>
<path d="M9.5 9.5H5.5M9.5 15.5H5.5M19.5 18.5H5.5M9.5 12.5H5.5" stroke="black" stroke-width="1.5" stroke-linecap="round" stroke-linejoin="round"/>
<path d="M12.5436 14.4115C12.5866 15.265 13.2351 15.9135 14.0886 15.9565C14.5841 15.9815 15.2171 16 16.0001 16C16.6375 16.0015 17.2749 15.987 17.9116 15.9565C18.7646 15.9135 19.4136 15.265 19.4566 14.4115C19.4816 13.916 19.5001 13.283 19.5001 12.5C19.5016 11.8627 19.4871 11.2255 19.4566 10.589C19.4136 9.73549 18.7651 9.08649 17.9116 9.04399C17.2749 9.01329 16.6375 8.99862 16.0001 8.99999C15.3628 8.99846 14.7256 9.01297 14.0891 9.04349C13.2356 9.08649 12.5866 9.73499 12.5441 10.5885C12.5134 11.2252 12.4987 11.8626 12.5001 12.5C12.5001 13.283 12.5191 13.916 12.5436 14.4115Z" stroke="black" stroke-width="1.5" stroke-linejoin="round"/>
</g>
<defs>
<clipPath id="clip0_75_844">
<rect width="24" height="24" fill="white"/>
</clipPath>
</defs>
</svg>
