<svg width="20" height="20" viewBox="0 0 20 20" fill="none" xmlns="http://www.w3.org/2000/svg">
<path d="M3.3335 15.8333V14.1667H5.00016V8.33334C5.00016 7.18056 5.34738 6.1564 6.04183 5.26084C6.73627 4.36528 7.63905 3.77834 8.75016 3.50001V2.91667C8.75016 2.56945 8.87183 2.27445 9.11516 2.03167C9.3585 1.7889 9.6535 1.66723 10.0002 1.66667C10.3468 1.66612 10.6421 1.78778 10.886 2.03167C11.1299 2.27556 11.2513 2.57056 11.2502 2.91667V3.50001C12.3613 3.77778 13.2641 4.36473 13.9585 5.26084C14.6529 6.15695 15.0002 7.18112 15.0002 8.33334V14.1667H16.6668V15.8333H3.3335ZM10.0002 18.3333C9.54183 18.3333 9.14961 18.1703 8.8235 17.8442C8.49739 17.5181 8.33405 17.1256 8.3335 16.6667H11.6668C11.6668 17.125 11.5038 17.5175 11.1777 17.8442C10.8516 18.1708 10.4591 18.3339 10.0002 18.3333ZM6.66683 14.1667H13.3335V8.33334C13.3335 7.41667 13.0071 6.63195 12.3543 5.97917C11.7016 5.3264 10.9168 5.00001 10.0002 5.00001C9.0835 5.00001 8.29877 5.3264 7.646 5.97917C6.99322 6.63195 6.66683 7.41667 6.66683 8.33334V14.1667Z" fill="black"/>
</svg>
