<svg width="100" height="87" viewBox="0 0 100 87" fill="none" xmlns="http://www.w3.org/2000/svg">
<path d="M0 86.2917L49.9583 0L99.9167 86.2917H0ZM49.9583 72.6667C51.2451 72.6667 52.3245 72.2307 53.1965 71.3587C54.0685 70.4867 54.503 69.4088 54.5 68.125C54.497 66.8412 54.061 65.7633 53.192 64.8913C52.323 64.0193 51.2451 63.5833 49.9583 63.5833C48.6715 63.5833 47.5936 64.0193 46.7247 64.8913C45.8557 65.7633 45.4197 66.8412 45.4167 68.125C45.4136 69.4088 45.8496 70.4882 46.7247 71.3632C47.5997 72.2382 48.6776 72.6727 49.9583 72.6667ZM45.4167 59.0417H54.5V36.3333H45.4167V59.0417Z" fill="#FF0000"/>
</svg>
