<svg width="297" height="131" viewBox="0 0 297 131" fill="none" xmlns="http://www.w3.org/2000/svg">
<path d="M7.42199e-05 121L7.65607 104.08H10.1761L17.8321 121H14.7121L12.6721 116.248L13.9681 117.088H3.84007L5.13607 116.248L3.12007 121H7.42199e-05ZM8.88007 107.416L5.52007 115.408L4.89607 114.64H12.9121L12.3121 115.408L8.92807 107.416H8.88007ZM23.4754 121.24C22.0834 121.24 21.0514 120.864 20.3794 120.112C19.7234 119.344 19.3954 118.224 19.3954 116.752V104.08H22.3954V116.608C22.3954 117.072 22.4594 117.472 22.5874 117.808C22.7314 118.128 22.9394 118.368 23.2114 118.528C23.4834 118.688 23.8194 118.768 24.2194 118.768C24.3954 118.768 24.5714 118.76 24.7474 118.744C24.9234 118.728 25.0914 118.696 25.2514 118.648L25.2034 121.024C24.9154 121.088 24.6274 121.136 24.3394 121.168C24.0674 121.216 23.7794 121.24 23.4754 121.24ZM31.1395 121.24C29.7475 121.24 28.7155 120.864 28.0435 120.112C27.3875 119.344 27.0595 118.224 27.0595 116.752V104.08H30.0595V116.608C30.0595 117.072 30.1235 117.472 30.2515 117.808C30.3955 118.128 30.6035 118.368 30.8755 118.528C31.1475 118.688 31.4835 118.768 31.8835 118.768C32.0595 118.768 32.2355 118.76 32.4115 118.744C32.5875 118.728 32.7555 118.696 32.9155 118.648L32.8675 121.024C32.5795 121.088 32.2915 121.136 32.0035 121.168C31.7315 121.216 31.4435 121.24 31.1395 121.24ZM45.4883 121.24C44.8323 121.24 44.1923 121.184 43.5683 121.072C42.9603 120.96 42.4003 120.808 41.8883 120.616C41.3763 120.408 40.9283 120.152 40.5443 119.848L41.3123 117.88C41.7123 118.136 42.1443 118.36 42.6083 118.552C43.0723 118.744 43.5523 118.888 44.0483 118.984C44.5443 119.08 45.0323 119.128 45.5123 119.128C46.2803 119.128 46.8483 119 47.2163 118.744C47.6003 118.472 47.7923 118.12 47.7923 117.688C47.7923 117.32 47.6643 117.04 47.4083 116.848C47.1683 116.64 46.8003 116.488 46.3043 116.392L43.9043 115.936C42.9123 115.744 42.1523 115.384 41.6243 114.856C41.1123 114.312 40.8563 113.616 40.8563 112.768C40.8563 112 41.0643 111.336 41.4803 110.776C41.9123 110.216 42.5043 109.784 43.2563 109.48C44.0083 109.176 44.8723 109.024 45.8483 109.024C46.4083 109.024 46.9523 109.08 47.4803 109.192C48.0083 109.288 48.5043 109.44 48.9683 109.648C49.4483 109.84 49.8643 110.096 50.2163 110.416L49.4003 112.384C49.0963 112.128 48.7443 111.912 48.3443 111.736C47.9443 111.544 47.5283 111.4 47.0963 111.304C46.6803 111.192 46.2723 111.136 45.8723 111.136C45.0883 111.136 44.5043 111.272 44.1203 111.544C43.7523 111.816 43.5683 112.176 43.5683 112.624C43.5683 112.96 43.6803 113.24 43.9043 113.464C44.1283 113.688 44.4723 113.84 44.9363 113.92L47.3363 114.376C48.3763 114.568 49.1603 114.92 49.6883 115.432C50.2323 115.944 50.5043 116.632 50.5043 117.496C50.5043 118.28 50.2963 118.952 49.8803 119.512C49.4643 120.072 48.8803 120.504 48.1283 120.808C47.3763 121.096 46.4963 121.24 45.4883 121.24ZM56.7751 121.24C55.9271 121.24 55.1671 121.08 54.4951 120.76C53.8391 120.424 53.3191 119.976 52.9351 119.416C52.5671 118.856 52.3831 118.224 52.3831 117.52C52.3831 116.656 52.6071 115.976 53.0551 115.48C53.5031 114.968 54.2311 114.6 55.2391 114.376C56.2471 114.152 57.5991 114.04 59.2951 114.04H60.4951V115.768H59.3191C58.5671 115.768 57.9351 115.8 57.4231 115.864C56.9111 115.912 56.4951 116 56.1751 116.128C55.8711 116.24 55.6471 116.4 55.5031 116.608C55.3751 116.816 55.3111 117.072 55.3111 117.376C55.3111 117.904 55.4951 118.336 55.8631 118.672C56.2311 119.008 56.7431 119.176 57.3991 119.176C57.9271 119.176 58.3911 119.056 58.7911 118.816C59.2071 118.56 59.5351 118.216 59.7751 117.784C60.0151 117.352 60.1351 116.856 60.1351 116.296V113.536C60.1351 112.736 59.9591 112.16 59.6071 111.808C59.2551 111.456 58.6631 111.28 57.8311 111.28C57.1751 111.28 56.5031 111.384 55.8151 111.592C55.1271 111.784 54.4311 112.088 53.7271 112.504L52.8631 110.464C53.2791 110.176 53.7671 109.928 54.3271 109.72C54.9031 109.496 55.5031 109.328 56.1271 109.216C56.7671 109.088 57.3671 109.024 57.9271 109.024C59.0791 109.024 60.0231 109.2 60.7591 109.552C61.5111 109.904 62.0711 110.44 62.4391 111.16C62.8071 111.864 62.9911 112.776 62.9911 113.896V121H60.1831V118.504H60.3751C60.2631 119.064 60.0391 119.552 59.7031 119.968C59.3831 120.368 58.9751 120.68 58.4791 120.904C57.9831 121.128 57.4151 121.24 56.7751 121.24ZM66.8281 121V111.52H64.5721V109.264H67.6921L66.8281 110.056V109.24C66.8281 107.576 67.2601 106.32 68.1241 105.472C69.0041 104.624 70.3641 104.144 72.2041 104.032L73.3801 103.96L73.5721 106.168L72.4681 106.24C71.8281 106.272 71.3161 106.392 70.9321 106.6C70.5481 106.792 70.2681 107.064 70.0921 107.416C69.9161 107.768 69.8281 108.216 69.8281 108.76V109.648L69.4441 109.264H73.0201V111.52H69.8281V121H66.8281ZM80.2576 121.24C78.9296 121.24 77.7856 120.992 76.8256 120.496C75.8656 120 75.1216 119.296 74.5936 118.384C74.0816 117.472 73.8256 116.392 73.8256 115.144C73.8256 113.928 74.0736 112.864 74.5696 111.952C75.0816 111.04 75.7776 110.328 76.6576 109.816C77.5536 109.288 78.5696 109.024 79.7056 109.024C80.8256 109.024 81.7856 109.264 82.5856 109.744C83.3856 110.224 84.0016 110.904 84.4336 111.784C84.8816 112.664 85.1056 113.712 85.1056 114.928V115.816H76.2496V114.088H82.9936L82.6096 114.448C82.6096 113.36 82.3696 112.528 81.8896 111.952C81.4096 111.36 80.7216 111.064 79.8256 111.064C79.1536 111.064 78.5776 111.224 78.0976 111.544C77.6336 111.848 77.2736 112.288 77.0176 112.864C76.7776 113.424 76.6576 114.096 76.6576 114.88V115.048C76.6576 115.928 76.7936 116.656 77.0656 117.232C77.3376 117.808 77.7456 118.24 78.2896 118.528C78.8336 118.816 79.5056 118.96 80.3056 118.96C80.9616 118.96 81.6176 118.864 82.2736 118.672C82.9296 118.464 83.5296 118.144 84.0736 117.712L84.9136 119.728C84.3536 120.192 83.6496 120.56 82.8016 120.832C81.9536 121.104 81.1056 121.24 80.2576 121.24ZM92.8105 121.24C91.2425 121.24 90.0745 120.848 89.3065 120.064C88.5385 119.28 88.1545 118.136 88.1545 116.632V111.52H85.8985V109.264H88.1545V105.76H91.1545V109.264H94.7065V111.52H91.1545V116.464C91.1545 117.232 91.3225 117.808 91.6585 118.192C91.9945 118.576 92.5385 118.768 93.2905 118.768C93.5145 118.768 93.7465 118.744 93.9865 118.696C94.2265 118.632 94.4745 118.568 94.7305 118.504L95.1865 120.712C94.8985 120.872 94.5305 121 94.0825 121.096C93.6505 121.192 93.2265 121.24 92.8105 121.24ZM97.8889 125.32L100.337 119.92V121.168L95.1769 109.264H98.3689L102.017 118.36H101.297L105.017 109.264H108.041L100.985 125.32H97.8889ZM120.231 121.24C119.575 121.24 118.935 121.184 118.311 121.072C117.703 120.96 117.143 120.808 116.631 120.616C116.119 120.408 115.671 120.152 115.287 119.848L116.055 117.88C116.455 118.136 116.887 118.36 117.351 118.552C117.815 118.744 118.295 118.888 118.791 118.984C119.287 119.08 119.775 119.128 120.255 119.128C121.023 119.128 121.591 119 121.959 118.744C122.343 118.472 122.535 118.12 122.535 117.688C122.535 117.32 122.407 117.04 122.151 116.848C121.911 116.64 121.543 116.488 121.047 116.392L118.647 115.936C117.655 115.744 116.895 115.384 116.367 114.856C115.855 114.312 115.599 113.616 115.599 112.768C115.599 112 115.807 111.336 116.223 110.776C116.655 110.216 117.247 109.784 117.999 109.48C118.751 109.176 119.615 109.024 120.591 109.024C121.151 109.024 121.695 109.08 122.223 109.192C122.751 109.288 123.247 109.44 123.711 109.648C124.191 109.84 124.607 110.096 124.959 110.416L124.143 112.384C123.839 112.128 123.487 111.912 123.087 111.736C122.687 111.544 122.271 111.4 121.839 111.304C121.423 111.192 121.015 111.136 120.615 111.136C119.831 111.136 119.247 111.272 118.863 111.544C118.495 111.816 118.311 112.176 118.311 112.624C118.311 112.96 118.423 113.24 118.647 113.464C118.871 113.688 119.215 113.84 119.679 113.92L122.079 114.376C123.119 114.568 123.903 114.92 124.431 115.432C124.975 115.944 125.247 116.632 125.247 117.496C125.247 118.28 125.039 118.952 124.623 119.512C124.207 120.072 123.623 120.504 122.871 120.808C122.119 121.096 121.239 121.24 120.231 121.24ZM132.912 121.24C131.344 121.24 130.176 120.848 129.408 120.064C128.64 119.28 128.256 118.136 128.256 116.632V111.52H126V109.264H128.256V105.76H131.256V109.264H134.808V111.52H131.256V116.464C131.256 117.232 131.424 117.808 131.76 118.192C132.096 118.576 132.64 118.768 133.392 118.768C133.616 118.768 133.848 118.744 134.088 118.696C134.328 118.632 134.576 118.568 134.832 118.504L135.288 120.712C135 120.872 134.632 121 134.184 121.096C133.752 121.192 133.328 121.24 132.912 121.24ZM142.414 121.24C141.086 121.24 139.942 120.992 138.982 120.496C138.022 120 137.278 119.296 136.75 118.384C136.238 117.472 135.982 116.392 135.982 115.144C135.982 113.928 136.23 112.864 136.726 111.952C137.238 111.04 137.934 110.328 138.814 109.816C139.71 109.288 140.726 109.024 141.862 109.024C142.982 109.024 143.942 109.264 144.742 109.744C145.542 110.224 146.158 110.904 146.59 111.784C147.038 112.664 147.262 113.712 147.262 114.928V115.816H138.406V114.088H145.15L144.766 114.448C144.766 113.36 144.526 112.528 144.046 111.952C143.566 111.36 142.878 111.064 141.982 111.064C141.31 111.064 140.734 111.224 140.254 111.544C139.79 111.848 139.43 112.288 139.174 112.864C138.934 113.424 138.814 114.096 138.814 114.88V115.048C138.814 115.928 138.95 116.656 139.222 117.232C139.494 117.808 139.902 118.24 140.446 118.528C140.99 118.816 141.662 118.96 142.462 118.96C143.118 118.96 143.774 118.864 144.43 118.672C145.086 118.464 145.686 118.144 146.23 117.712L147.07 119.728C146.51 120.192 145.806 120.56 144.958 120.832C144.11 121.104 143.262 121.24 142.414 121.24ZM149.638 125.32V109.264H152.566V111.736H152.326C152.566 110.92 153.054 110.264 153.79 109.768C154.542 109.272 155.414 109.024 156.406 109.024C157.43 109.024 158.326 109.272 159.094 109.768C159.878 110.264 160.486 110.968 160.918 111.88C161.35 112.776 161.566 113.856 161.566 115.12C161.566 116.368 161.35 117.456 160.918 118.384C160.486 119.296 159.886 120 159.118 120.496C158.35 120.992 157.446 121.24 156.406 121.24C155.43 121.24 154.574 121 153.838 120.52C153.102 120.024 152.606 119.384 152.35 118.6H152.638V125.32H149.638ZM155.566 118.96C156.462 118.96 157.182 118.64 157.726 118C158.27 117.344 158.542 116.384 158.542 115.12C158.542 113.84 158.27 112.888 157.726 112.264C157.182 111.624 156.462 111.304 155.566 111.304C154.67 111.304 153.95 111.624 153.406 112.264C152.862 112.888 152.59 113.84 152.59 115.12C152.59 116.384 152.862 117.344 153.406 118C153.95 118.64 154.67 118.96 155.566 118.96ZM168.324 121.24C167.668 121.24 167.028 121.184 166.404 121.072C165.796 120.96 165.236 120.808 164.724 120.616C164.212 120.408 163.764 120.152 163.38 119.848L164.148 117.88C164.548 118.136 164.98 118.36 165.444 118.552C165.908 118.744 166.388 118.888 166.884 118.984C167.38 119.08 167.868 119.128 168.348 119.128C169.116 119.128 169.684 119 170.052 118.744C170.436 118.472 170.628 118.12 170.628 117.688C170.628 117.32 170.5 117.04 170.244 116.848C170.004 116.64 169.636 116.488 169.14 116.392L166.74 115.936C165.748 115.744 164.988 115.384 164.46 114.856C163.948 114.312 163.692 113.616 163.692 112.768C163.692 112 163.9 111.336 164.316 110.776C164.748 110.216 165.34 109.784 166.092 109.48C166.844 109.176 167.708 109.024 168.684 109.024C169.244 109.024 169.788 109.08 170.316 109.192C170.844 109.288 171.34 109.44 171.804 109.648C172.284 109.84 172.7 110.096 173.052 110.416L172.236 112.384C171.932 112.128 171.58 111.912 171.18 111.736C170.78 111.544 170.364 111.4 169.932 111.304C169.516 111.192 169.108 111.136 168.708 111.136C167.924 111.136 167.34 111.272 166.956 111.544C166.588 111.816 166.404 112.176 166.404 112.624C166.404 112.96 166.516 113.24 166.74 113.464C166.964 113.688 167.308 113.84 167.772 113.92L170.172 114.376C171.212 114.568 171.996 114.92 172.524 115.432C173.068 115.944 173.34 116.632 173.34 117.496C173.34 118.28 173.132 118.952 172.716 119.512C172.3 120.072 171.716 120.504 170.964 120.808C170.212 121.096 169.332 121.24 168.324 121.24ZM187.64 121.24C186.408 121.24 185.336 120.992 184.424 120.496C183.512 119.984 182.808 119.264 182.312 118.336C181.816 117.408 181.568 116.32 181.568 115.072C181.568 113.824 181.816 112.752 182.312 111.856C182.808 110.944 183.512 110.248 184.424 109.768C185.336 109.272 186.408 109.024 187.64 109.024C188.392 109.024 189.136 109.144 189.872 109.384C190.608 109.624 191.216 109.96 191.696 110.392L190.808 112.48C190.392 112.112 189.92 111.832 189.392 111.64C188.88 111.448 188.384 111.352 187.904 111.352C186.864 111.352 186.056 111.68 185.48 112.336C184.92 112.976 184.64 113.896 184.64 115.096C184.64 116.28 184.92 117.216 185.48 117.904C186.056 118.576 186.864 118.912 187.904 118.912C188.368 118.912 188.864 118.816 189.392 118.624C189.92 118.432 190.392 118.144 190.808 117.76L191.696 119.872C191.216 120.288 190.6 120.624 189.848 120.88C189.112 121.12 188.376 121.24 187.64 121.24ZM198.654 121.24C197.438 121.24 196.382 120.992 195.486 120.496C194.59 120 193.894 119.296 193.398 118.384C192.902 117.456 192.654 116.368 192.654 115.12C192.654 113.872 192.902 112.792 193.398 111.88C193.894 110.968 194.59 110.264 195.486 109.768C196.382 109.272 197.438 109.024 198.654 109.024C199.87 109.024 200.926 109.272 201.822 109.768C202.718 110.264 203.414 110.968 203.91 111.88C204.406 112.792 204.654 113.872 204.654 115.12C204.654 116.368 204.406 117.456 203.91 118.384C203.414 119.296 202.718 120 201.822 120.496C200.926 120.992 199.87 121.24 198.654 121.24ZM198.654 118.96C199.55 118.96 200.27 118.64 200.814 118C201.358 117.344 201.63 116.384 201.63 115.12C201.63 113.84 201.358 112.888 200.814 112.264C200.27 111.624 199.55 111.304 198.654 111.304C197.758 111.304 197.038 111.624 196.494 112.264C195.95 112.888 195.678 113.84 195.678 115.12C195.678 116.384 195.95 117.344 196.494 118C197.038 118.64 197.758 118.96 198.654 118.96ZM207.13 121V109.264H210.058V111.616H209.794C210.146 110.768 210.69 110.128 211.426 109.696C212.178 109.248 213.026 109.024 213.97 109.024C214.914 109.024 215.69 109.2 216.298 109.552C216.906 109.904 217.362 110.44 217.666 111.16C217.97 111.864 218.122 112.76 218.122 113.848V121H215.122V113.992C215.122 113.384 215.042 112.888 214.882 112.504C214.738 112.12 214.506 111.84 214.186 111.664C213.882 111.472 213.49 111.376 213.01 111.376C212.434 111.376 211.93 111.504 211.498 111.76C211.066 112 210.73 112.352 210.49 112.816C210.25 113.264 210.13 113.792 210.13 114.4V121H207.13ZM221.961 121V111.52H219.705V109.264H222.825L221.961 110.056V109.24C221.961 107.576 222.393 106.32 223.257 105.472C224.137 104.624 225.497 104.144 227.337 104.032L228.393 103.984L228.537 106.192L227.601 106.24C226.961 106.272 226.449 106.392 226.065 106.6C225.681 106.792 225.401 107.064 225.225 107.416C225.049 107.768 224.961 108.216 224.961 108.76V109.552V109.264H232.713V121H229.713V111.52H224.961V121H221.961ZM229.545 106.744V103.816H232.881V106.744H229.545ZM235.841 121V109.264H238.769V112.096H238.529C238.753 111.136 239.193 110.408 239.849 109.912C240.505 109.4 241.377 109.104 242.465 109.024L243.377 108.952L243.569 111.496L241.841 111.664C240.865 111.76 240.129 112.064 239.633 112.576C239.137 113.072 238.889 113.776 238.889 114.688V121H235.841ZM245.287 121V109.264H248.215V111.616H247.951C248.159 111.072 248.447 110.608 248.815 110.224C249.183 109.84 249.623 109.544 250.135 109.336C250.647 109.128 251.215 109.024 251.839 109.024C252.783 109.024 253.559 109.248 254.167 109.696C254.775 110.144 255.199 110.832 255.439 111.76H255.103C255.423 110.912 255.951 110.248 256.687 109.768C257.423 109.272 258.271 109.024 259.231 109.024C260.127 109.024 260.863 109.2 261.439 109.552C262.031 109.904 262.471 110.44 262.759 111.16C263.047 111.864 263.191 112.76 263.191 113.848V121H260.191V113.968C260.191 113.072 260.039 112.416 259.735 112C259.447 111.584 258.951 111.376 258.247 111.376C257.735 111.376 257.287 111.504 256.903 111.76C256.519 112 256.223 112.352 256.015 112.816C255.823 113.28 255.727 113.84 255.727 114.496V121H252.727V113.968C252.727 113.072 252.575 112.416 252.271 112C251.983 111.584 251.495 111.376 250.807 111.376C250.279 111.376 249.823 111.504 249.439 111.76C249.071 112 248.783 112.352 248.575 112.816C248.383 113.28 248.287 113.84 248.287 114.496V121H245.287ZM272.07 121.24C270.742 121.24 269.598 120.992 268.638 120.496C267.678 120 266.934 119.296 266.406 118.384C265.894 117.472 265.638 116.392 265.638 115.144C265.638 113.928 265.886 112.864 266.382 111.952C266.894 111.04 267.59 110.328 268.47 109.816C269.366 109.288 270.382 109.024 271.518 109.024C272.638 109.024 273.598 109.264 274.398 109.744C275.198 110.224 275.814 110.904 276.246 111.784C276.694 112.664 276.918 113.712 276.918 114.928V115.816H268.062V114.088H274.806L274.422 114.448C274.422 113.36 274.182 112.528 273.702 111.952C273.222 111.36 272.534 111.064 271.638 111.064C270.966 111.064 270.39 111.224 269.91 111.544C269.446 111.848 269.086 112.288 268.83 112.864C268.59 113.424 268.47 114.096 268.47 114.88V115.048C268.47 115.928 268.606 116.656 268.878 117.232C269.15 117.808 269.558 118.24 270.102 118.528C270.646 118.816 271.318 118.96 272.118 118.96C272.774 118.96 273.43 118.864 274.086 118.672C274.742 118.464 275.342 118.144 275.886 117.712L276.726 119.728C276.166 120.192 275.462 120.56 274.614 120.832C273.766 121.104 272.918 121.24 272.07 121.24ZM283.806 121.24C282.782 121.24 281.878 120.992 281.094 120.496C280.326 120 279.726 119.296 279.294 118.384C278.862 117.456 278.646 116.368 278.646 115.12C278.646 113.856 278.862 112.776 279.294 111.88C279.726 110.968 280.326 110.264 281.094 109.768C281.878 109.272 282.782 109.024 283.806 109.024C284.782 109.024 285.63 109.264 286.35 109.744C287.086 110.224 287.582 110.856 287.838 111.64H287.574V104.08H290.574V121H287.646V118.504H287.862C287.622 119.336 287.134 120 286.398 120.496C285.662 120.992 284.798 121.24 283.806 121.24ZM284.646 118.96C285.542 118.96 286.262 118.64 286.806 118C287.35 117.344 287.622 116.384 287.622 115.12C287.622 113.84 287.35 112.888 286.806 112.264C286.262 111.624 285.542 111.304 284.646 111.304C283.75 111.304 283.03 111.624 282.486 112.264C281.942 112.888 281.67 113.84 281.67 115.12C281.67 116.384 281.942 117.344 282.486 118C283.03 118.64 283.75 118.96 284.646 118.96ZM294.189 115.984L293.253 104.08H296.949L296.013 115.984H294.189ZM293.421 121V117.664H296.781V121H293.421Z" fill="#038B53"/>
<g clip-path="url(#clip0_58_416)">
<path d="M137.413 2.62806L138.308 3.42764L145.353 10.4735L155.329 10.4814C158.049 10.4812 160.684 11.4275 162.783 13.1579C164.882 14.8884 166.313 17.2952 166.831 19.9656L166.99 21.0581L167.045 22.1901L167.029 32.1572L174.099 39.2189C176.006 41.1254 177.197 43.6313 177.471 46.3138C177.745 48.9963 177.085 51.6912 175.603 53.9439L174.899 54.8939L174.099 55.7806L167.029 62.8343L167.037 72.7935C167.037 78.0106 163.617 82.4835 158.677 83.9956L157.601 84.2726L156.476 84.4547L155.336 84.5101H145.361L138.308 91.5718C136.401 93.4786 133.895 94.6695 131.213 94.9435C128.53 95.2175 125.835 94.5579 123.583 93.076L122.633 92.3714L121.746 91.5718L114.684 84.5022L104.725 84.5101C102.007 84.5133 99.3723 83.5712 97.2723 81.8453C95.1723 80.1194 93.7378 77.717 93.2143 75.0497L93.056 73.9493L93.0085 72.8251V62.8264L85.9627 55.7806C84.0558 53.874 82.865 51.3681 82.5909 48.6857C82.3169 46.0032 82.9765 43.3083 84.4585 41.0556L85.1552 40.1056L85.9547 39.2189L93.0006 32.1651L93.0085 22.1901C93.0085 16.4901 97.0935 11.7401 102.493 10.6951L103.593 10.5368L104.717 10.4814H114.692L121.746 3.43556C123.796 1.38556 126.533 0.168338 129.428 0.0191892C132.324 -0.12996 135.163 0.79956 137.413 2.62806ZM147.008 31.5793L146.335 32.1414L126.068 52.4081L117.677 44.0164C116.745 43.1073 115.495 42.5984 114.193 42.5984C112.892 42.5984 111.642 43.1073 110.71 44.0164C109.904 44.8392 109.408 45.9156 109.305 47.0629C109.203 48.2102 109.501 49.3575 110.148 50.3101L110.71 50.9831L122.585 62.8581C123.414 63.6818 124.508 64.1854 125.674 64.2796C126.839 64.3738 127.999 64.0525 128.95 63.3726L129.552 62.8581L153.302 39.1081C153.771 38.6574 154.145 38.1165 154.4 37.5179C154.655 36.9194 154.786 36.2754 154.786 35.6247C154.786 34.9741 154.655 34.3301 154.4 33.7315C154.145 33.1329 153.771 32.5921 153.302 32.1414C152.479 31.3354 151.403 30.839 150.255 30.7365C149.108 30.6341 147.961 30.9318 147.008 31.5793Z" fill="#038B53"/>
</g>
<defs>
<clipPath id="clip0_58_416">
<rect width="95" height="95" fill="white" transform="translate(82.5269)"/>
</clipPath>
</defs>
</svg>
