<svg width="32" height="29" viewBox="0 0 32 29" fill="none" xmlns="http://www.w3.org/2000/svg">
<path d="M3.33562 28.3458H28.4356C31.0023 28.3458 32.6023 25.5625 31.319 23.3458L18.769 1.6625C17.4856 -0.554167 14.2856 -0.554167 13.0023 1.6625L0.452285 23.3458C-0.831048 25.5625 0.768952 28.3458 3.33562 28.3458ZM15.8856 16.6792C14.969 16.6792 14.219 15.9292 14.219 15.0125V11.6792C14.219 10.7625 14.969 10.0125 15.8856 10.0125C16.8023 10.0125 17.5523 10.7625 17.5523 11.6792V15.0125C17.5523 15.9292 16.8023 16.6792 15.8856 16.6792ZM17.5523 23.3458H14.219V20.0125H17.5523V23.3458Z" fill="#FFCD29"/>
</svg>
